<?xml version="1.0" encoding="UTF-8"?>
<svg xmlns="http://www.w3.org/2000/svg" xmlns:xlink="http://www.w3.org/1999/xlink" width="30px" height="30px" viewBox="0 0 30 30" version="1.1">
<g id="surface1">
<path style=" stroke:none;fill-rule:nonzero;fill:rgb(70.588235%,81.568627%,85.882353%);fill-opacity:1;" d="M 24.574219 13.542969 C 24.574219 7.976562 20.355469 4.105469 14.296875 4.105469 C 8.015625 4.105469 3.707031 8.453125 3.707031 14.796875 C 3.707031 21.347656 7.898438 25.5 14.511719 25.5 C 16.128906 25.5 17.679688 25.269531 18.832031 24.871094 L 18.832031 23.253906 C 18.027344 23.628906 16.292969 23.871094 14.539062 23.871094 C 9.050781 23.871094 5.515625 20.34375 5.515625 14.875 C 5.515625 9.542969 9.117188 5.722656 14.128906 5.722656 C 19.257812 5.722656 22.769531 8.886719 22.769531 13.515625 C 22.769531 16.667969 21.730469 18.707031 20.113281 18.707031 C 19.191406 18.707031 18.664062 18.183594 18.664062 17.28125 L 18.664062 9.761719 L 16.730469 9.761719 L 16.730469 11.324219 L 16.523438 11.324219 C 16.027344 10.210938 14.871094 9.515625 13.523438 9.515625 C 10.898438 9.515625 9.066406 11.695312 9.066406 14.8125 C 9.066406 18.066406 10.859375 20.257812 13.527344 20.257812 C 15.027344 20.257812 16.179688 19.527344 16.730469 18.222656 L 16.9375 18.222656 C 17.089844 19.476562 18.253906 20.375 19.753906 20.375 C 22.703125 20.375 24.574219 17.71875 24.574219 13.542969 Z M 11.117188 14.859375 C 11.117188 12.617188 12.128906 11.285156 13.847656 11.285156 C 15.589844 11.285156 16.703125 12.667969 16.703125 14.859375 C 16.703125 17.054688 15.578125 18.449219 13.820312 18.449219 C 12.140625 18.449219 11.117188 17.089844 11.117188 14.859375 Z M 11.117188 14.859375 "/>
</g>
</svg>
