<?xml version="1.0" encoding="UTF-8"?>
<svg xmlns="http://www.w3.org/2000/svg" xmlns:xlink="http://www.w3.org/1999/xlink" width="22px" height="22px" viewBox="0 0 22 22" version="1.1">
<g id="surface1">
<path style=" stroke:none;fill-rule:nonzero;fill:rgb(70.588235%,81.568627%,85.882353%);fill-opacity:1;" d="M 11 0 C 4.921875 0 0 4.921875 0 11 C 0 15.867188 3.148438 19.980469 7.519531 21.4375 C 8.070312 21.53125 8.277344 21.203125 8.277344 20.914062 C 8.277344 20.652344 8.265625 19.785156 8.265625 18.863281 C 5.5 19.375 4.785156 18.191406 4.566406 17.574219 C 4.441406 17.257812 3.90625 16.28125 3.4375 16.019531 C 3.050781 15.8125 2.503906 15.304688 3.421875 15.289062 C 4.289062 15.277344 4.910156 16.085938 5.113281 16.417969 C 6.105469 18.082031 7.6875 17.613281 8.320312 17.324219 C 8.414062 16.609375 8.703125 16.128906 9.019531 15.855469 C 6.574219 15.578125 4.015625 14.628906 4.015625 10.421875 C 4.015625 9.226562 4.441406 8.234375 5.140625 7.464844 C 5.03125 7.191406 4.648438 6.0625 5.253906 4.550781 C 5.253906 4.550781 6.171875 4.261719 8.277344 5.679688 C 9.15625 5.429688 10.09375 5.308594 11.027344 5.308594 C 11.960938 5.308594 12.898438 5.429688 13.777344 5.679688 C 15.882812 4.25 16.800781 4.550781 16.800781 4.550781 C 17.40625 6.0625 17.023438 7.191406 16.914062 7.464844 C 17.613281 8.234375 18.039062 9.210938 18.039062 10.421875 C 18.039062 14.644531 15.46875 15.578125 13.019531 15.855469 C 13.421875 16.199219 13.765625 16.859375 13.765625 17.890625 C 13.765625 19.359375 13.75 20.542969 13.75 20.914062 C 13.75 21.203125 13.957031 21.546875 14.507812 21.4375 C 18.984375 19.925781 22 15.726562 22 11 C 22 4.921875 17.078125 0 11 0 Z M 11 0 "/>
</g>
</svg>
