<?xml version="1.0" encoding="UTF-8"?>
<svg xmlns="http://www.w3.org/2000/svg" xmlns:xlink="http://www.w3.org/1999/xlink" width="22px" height="22px" viewBox="0 0 22 22" version="1.1">
<g id="surface1">
<path style=" stroke:none;fill-rule:nonzero;fill:rgb(55.294118%,60%,68.235294%);fill-opacity:1;" d="M 8.59375 12.007812 L 8.59375 8 L 11 6.394531 L 13.429688 8 L 13.429688 12.007812 L 11.894531 12.007812 L 11.894531 9.511719 L 10.128906 9.511719 L 10.128906 12.007812 Z M 11 17.691406 C 12.878906 15.917969 14.277344 14.355469 15.191406 12.992188 C 16.109375 11.632812 16.566406 10.417969 16.566406 9.351562 C 16.566406 7.792969 16.027344 6.472656 14.941406 5.398438 C 13.855469 4.320312 12.542969 3.78125 11 3.78125 C 9.457031 3.78125 8.148438 4.320312 7.070312 5.398438 C 5.992188 6.472656 5.453125 7.792969 5.453125 9.351562 C 5.453125 10.417969 5.910156 11.632812 6.816406 12.992188 C 7.726562 14.355469 9.121094 15.917969 11 17.691406 Z M 11 19.707031 C 8.601562 17.613281 6.820312 15.730469 5.660156 14.058594 C 4.5 12.386719 3.917969 10.816406 3.917969 9.351562 C 3.917969 7.378906 4.605469 5.703125 5.980469 4.320312 C 7.355469 2.9375 9.027344 2.246094 11 2.246094 C 12.972656 2.246094 14.648438 2.9375 16.03125 4.320312 C 17.414062 5.703125 18.105469 7.378906 18.105469 9.351562 C 18.105469 10.816406 17.523438 12.386719 16.363281 14.058594 C 15.203125 15.730469 13.414062 17.613281 11 19.707031 Z M 11 19.707031 "/>
</g>
</svg>
