<?xml version="1.0" encoding="UTF-8"?>
<svg xmlns="http://www.w3.org/2000/svg" xmlns:xlink="http://www.w3.org/1999/xlink" width="22px" height="22px" viewBox="0 0 22 22" version="1.1">
<g id="surface1">
<path style=" stroke:none;fill-rule:nonzero;fill:rgb(70.588235%,81.568627%,85.882353%);fill-opacity:1;" d="M 0 1.574219 C 0 0.707031 0.722656 0 1.617188 0 L 20.382812 0 C 21.277344 0 22 0.707031 22 1.574219 L 22 20.425781 C 22 21.292969 21.277344 22 20.382812 22 L 1.617188 22 C 0.722656 22 0 21.292969 0 20.425781 Z M 6.796875 18.417969 L 6.796875 8.480469 L 3.496094 8.480469 L 3.496094 18.417969 Z M 5.148438 7.125 C 6.296875 7.125 7.015625 6.363281 7.015625 5.410156 C 6.992188 4.433594 6.300781 3.691406 5.167969 3.691406 C 4.039062 3.691406 3.300781 4.4375 3.300781 5.410156 C 3.300781 6.363281 4.015625 7.125 5.125 7.125 Z M 11.894531 18.417969 L 11.894531 12.867188 C 11.894531 12.570312 11.917969 12.273438 12.003906 12.0625 C 12.242188 11.46875 12.785156 10.855469 13.699219 10.855469 C 14.894531 10.855469 15.371094 11.765625 15.371094 13.101562 L 15.371094 18.417969 L 18.671875 18.417969 L 18.671875 12.71875 C 18.671875 9.667969 17.042969 8.246094 14.871094 8.246094 C 13.121094 8.246094 12.335938 9.210938 11.894531 9.886719 L 11.894531 9.921875 L 11.875 9.921875 C 11.878906 9.910156 11.886719 9.898438 11.894531 9.886719 L 11.894531 8.480469 L 8.59375 8.480469 C 8.636719 9.414062 8.59375 18.417969 8.59375 18.417969 Z M 11.894531 18.417969 "/>
</g>
</svg>
