<?xml version="1.0" encoding="UTF-8"?>
<svg xmlns="http://www.w3.org/2000/svg" xmlns:xlink="http://www.w3.org/1999/xlink" width="22px" height="22px" viewBox="0 0 22 22" version="1.1">
<g id="surface1">
<path style=" stroke:none;fill-rule:nonzero;fill:rgb(70.588235%,81.568627%,85.882353%);fill-opacity:1;" d="M 15.125 1.375 C 15.882812 1.375 16.5 1.992188 16.5 2.75 L 16.5 19.25 C 16.5 20.007812 15.882812 20.625 15.125 20.625 L 6.875 20.625 C 6.117188 20.625 5.5 20.007812 5.5 19.25 L 5.5 2.75 C 5.5 1.992188 6.117188 1.375 6.875 1.375 Z M 6.875 0 C 5.355469 0 4.125 1.230469 4.125 2.75 L 4.125 19.25 C 4.125 20.769531 5.355469 22 6.875 22 L 15.125 22 C 16.644531 22 17.875 20.769531 17.875 19.25 L 17.875 2.75 C 17.875 1.230469 16.644531 0 15.125 0 Z M 6.875 0 "/>
<path style=" stroke:none;fill-rule:nonzero;fill:rgb(70.588235%,81.568627%,85.882353%);fill-opacity:1;" d="M 11 19.25 C 11.757812 19.25 12.375 18.632812 12.375 17.875 C 12.375 17.117188 11.757812 16.5 11 16.5 C 10.242188 16.5 9.625 17.117188 9.625 17.875 C 9.625 18.632812 10.242188 19.25 11 19.25 Z M 11 19.25 "/>
</g>
</svg>
